# xmcd
#
# Track frame offsets: 
#        150
#        18958
#        36257
#        65259
#        90389
#        108995
#        132196
#        153610
#        173392
#        202047
#        222392
#        263782
#
# Disc length: 3974 seconds
#
# Revision: 0
# Processed by: cddbd v1.5.2PL0 Copyright (c) Steve Scherf et al.
# Submitted via: ExactAudioCopyFreeDBPlugin 1.0
#
DISCID=9d0f840c
DTITLE=DBT - Urbain Blues
DYEAR=2008
DGENRE=Blues
TTITLE0=La retraite
TTITLE1=Le divorce
TTITLE2=Terre natale
TTITLE3=Traquenard
TTITLE4=TGV
TTITLE5=Lolie
TTITLE6=Couleur boum cœur
TTITLE7=Katrina
TTITLE8=J'aime le sexe
TTITLE9=L'essentiel
TTITLE10=Le blues du cuisinier
TTITLE11=Le blues du cuisinier (video)
EXTD=
EXTT0=
EXTT1=
EXTT2=
EXTT3=
EXTT4=
EXTT5=
EXTT6=
EXTT7=
EXTT8=
EXTT9=
EXTT10=
EXTT11=
PLAYORDER=
